<svg xmlns="http://www.w3.org/2000/svg" width="21" height="21" fill="none"><path fill="#1A1A1A" d="M10.156 0a10.156 10.156 0 1 0 10.157 10.156A10.17 10.17 0 0 0 10.156 0m8.557 9.375h-3.89c-.175-3.565-1.548-6.087-2.674-7.578a8.61 8.61 0 0 1 6.565 7.578zm-11.66 1.563h6.206c-.226 4.063-2.171 6.553-3.103 7.519-.932-.967-2.877-3.457-3.102-7.52m0-1.563c.226-4.063 2.172-6.554 3.103-7.52.933.97 2.877 3.46 3.103 7.52zm1.11-7.578C7.037 3.288 5.664 5.81 5.49 9.375H1.6a8.61 8.61 0 0 1 6.564-7.578M1.6 10.937h3.89c.178 3.566 1.548 6.087 2.674 7.579A8.61 8.61 0 0 1 1.6 10.938m10.547 7.579c1.125-1.492 2.496-4.013 2.673-7.578h3.891a8.61 8.61 0 0 1-6.56 7.578z"/></svg>