<svg xmlns="http://www.w3.org/2000/svg" width="24" height="18" fill="none"><path fill="#1A1A1A" d="M23.125 10a.783.783 0 0 1-1.093-.157 5.04 5.04 0 0 0-4.063-2.031.781.781 0 0 1 0-1.563 2.344 2.344 0 1 0-2.27-2.93.781.781 0 1 1-1.513-.39 3.906 3.906 0 1 1 6.42 3.858 6.64 6.64 0 0 1 2.678 2.117.784.784 0 0 1-.159 1.095m-5.261 6.015a.781.781 0 1 1-1.352.781 5.566 5.566 0 0 0-9.586 0 .78.78 0 1 1-1.351-.781 7.04 7.04 0 0 1 3.294-2.922 4.688 4.688 0 1 1 5.7 0 7.04 7.04 0 0 1 3.295 2.922m-6.145-3.516a3.125 3.125 0 1 0 0-6.25 3.125 3.125 0 0 0 0 6.25M6.25 7.03a.78.78 0 0 0-.78-.78 2.344 2.344 0 1 1 2.269-2.93.782.782 0 1 0 1.513-.391 3.906 3.906 0 1 0-6.42 3.858A6.64 6.64 0 0 0 .157 8.904a.782.782 0 0 0 1.25.939 5.04 5.04 0 0 1 4.062-2.031.78.78 0 0 0 .781-.782"/></svg>