<svg xmlns="http://www.w3.org/2000/svg" width="30" height="30" fill="none"><path fill="#fff" d="M22.5 26.25v-1.875h1.875v1.875zm-5.625-3.75v-1.875h1.875V22.5zm0 5.625h3.75V26.25H18.75v-1.875h-1.875zm7.5-3.75v-3.75h1.875v3.75zm1.875 0h1.875v3.75h-3.75V26.25h1.875zm-1.875-5.625v-1.875h3.75v3.75H26.25V18.75zm-1.875 0h-1.875v3.75H18.75v1.875h3.75zm-5.625 0v-1.875h3.75v1.875zm-11.25 1.875h3.75v3.75h-3.75z"/><path fill="#fff" d="M13.125 28.125H1.875v-11.25h11.25zM3.75 26.25h7.5v-7.5h-7.5zM20.625 5.625h3.75v3.75h-3.75z"/><path fill="#fff" d="M28.125 13.125h-11.25V1.875h11.25zM18.75 11.25h7.5v-7.5h-7.5zM5.625 5.625h3.75v3.75h-3.75z"/><path fill="#fff" d="M13.125 13.125H1.875V1.875h11.25zM3.75 11.25h7.5v-7.5h-7.5z"/></svg>