<svg xmlns="http://www.w3.org/2000/svg" width="20" height="22" fill="none"><path fill="#1A1A1A" d="M16.456 15.183a8.63 8.63 0 0 0 3.076-6.791c-.098-4.464-3.673-8.145-8.13-8.38a8.594 8.594 0 0 0-9.058 8.386L.152 12.615l-.025.053a1.563 1.563 0 0 0 .737 2.014l.024.01 2.238 1.025v3.033a1.563 1.563 0 0 0 1.562 1.563h4.688a.781.781 0 1 0 0-1.563H4.688v-3.534a.78.78 0 0 0-.456-.711L1.563 13.28l2.253-4.33a.8.8 0 0 0 .09-.357 7.03 7.03 0 0 1 5.47-6.857V3.26a2.344 2.344 0 1 0 1.562 0V1.563a7.057 7.057 0 0 1 6.625 4.688h-1.937a.78.78 0 0 0-.601.28l-2.491 2.99a2.35 2.35 0 1 0 1.199 1.002l2.259-2.71h1.932q.036.305.043.615a7.06 7.06 0 0 1-2.81 5.79.78.78 0 0 0-.307.722l.782 6.25a.78.78 0 0 0 1.55-.194zm-6.3-8.933a.781.781 0 1 1 0-1.562.781.781 0 0 1 0 1.562m1.563 6.25a.78.78 0 1 1 0-1.562.78.78 0 0 1 0 1.562"/></svg>