<svg width="17" height="17" viewBox="0 0 17 17" fill="none" xmlns="http://www.w3.org/2000/svg">
<path d="M5.58917 9.70833H2.36C1.93216 9.71076 1.52267 9.88241 1.221 10.1858C0.919325 10.4892 0.749994 10.8997 0.750001 11.3275V14.5567C0.749782 14.7682 0.791276 14.9776 0.872108 15.173C0.952941 15.3685 1.07152 15.5461 1.22107 15.6956C1.37062 15.8451 1.54819 15.9637 1.74362 16.0446C1.93905 16.1254 2.14851 16.1669 2.36 16.1667H5.58917C6.01707 16.1671 6.4277 15.9979 6.73105 15.6961C7.0344 15.3943 7.20574 14.9846 7.2075 14.5567V11.3275C7.20772 11.1149 7.16601 10.9044 7.08476 10.7079C7.00351 10.5115 6.88431 10.333 6.73399 10.1827C6.58367 10.0324 6.40518 9.91316 6.20874 9.83191C6.01229 9.75066 5.80175 9.70895 5.58917 9.70917M5.58917 0.750001H2.36C2.14851 0.749782 1.93905 0.791276 1.74362 0.872108C1.54819 0.952941 1.37062 1.07152 1.22107 1.22107C1.07152 1.37062 0.952941 1.54819 0.872108 1.74362C0.791276 1.93905 0.749782 2.14851 0.750001 2.36V5.58917C0.749556 6.01707 0.918773 6.4277 1.22056 6.73105C1.52235 7.0344 1.9321 7.20574 2.36 7.2075H5.58917C5.80175 7.20772 6.01229 7.16601 6.20874 7.08476C6.40518 7.00351 6.58367 6.88431 6.73399 6.73399C6.88431 6.58367 7.00351 6.40518 7.08476 6.20874C7.16601 6.01229 7.20772 5.80175 7.2075 5.58917V2.36C7.20574 1.9321 7.0344 1.52235 6.73105 1.22056C6.4277 0.918773 6.01707 0.749556 5.58917 0.750001ZM14.5567 0.750001H11.3275C10.8996 0.749556 10.489 0.918773 10.1856 1.22056C9.88227 1.52235 9.71093 1.9321 9.70917 2.36V5.58917C9.70939 6.01831 9.87996 6.42981 10.1834 6.73326C10.4869 7.03671 10.8984 7.20728 11.3275 7.2075H14.5567C14.9846 7.20574 15.3943 7.0344 15.6961 6.73105C15.9979 6.4277 16.1671 6.01707 16.1667 5.58917V2.36C16.1669 2.14851 16.1254 1.93905 16.0446 1.74362C15.9637 1.54819 15.8451 1.37062 15.6956 1.22107C15.5461 1.07152 15.3685 0.952941 15.173 0.872108C14.9776 0.791276 14.7682 0.749782 14.5567 0.750001Z" stroke="#4D4D4D" stroke-width="1.5" stroke-linecap="round" stroke-linejoin="round"/>
<path d="M12.9316 9.97266V15.9027M9.97247 12.9443H15.9025" stroke="#4D4D4D" stroke-width="1.5" stroke-miterlimit="10" stroke-linecap="round"/>
</svg>
