<svg width="20" height="20" viewBox="0 0 20 20" fill="none" xmlns="http://www.w3.org/2000/svg">
<path d="M4.375 10.625C4.375 10.7908 4.30915 10.9497 4.19194 11.0669C4.07473 11.1842 3.91576 11.25 3.75 11.25H1.875C1.70924 11.25 1.55027 11.1842 1.43306 11.0669C1.31585 10.9497 1.25 10.7908 1.25 10.625C1.25 10.4592 1.31585 10.3003 1.43306 10.1831C1.55027 10.0658 1.70924 10 1.875 10H2.5V5H1.875C1.70924 5 1.55027 4.93415 1.43306 4.81694C1.31585 4.69973 1.25 4.54076 1.25 4.375C1.25 4.20924 1.31585 4.05027 1.43306 3.93306C1.55027 3.81585 1.70924 3.75 1.875 3.75H3.125C3.2308 3.74989 3.33491 3.77664 3.42755 3.82774C3.52019 3.87884 3.59835 3.95263 3.65469 4.04219L6.25 8.19609L8.84531 4.04375C8.90147 3.9539 8.97954 3.87981 9.0722 3.82842C9.16485 3.77704 9.26905 3.75005 9.375 3.75H10.625C10.7908 3.75 10.9497 3.81585 11.0669 3.93306C11.1842 4.05027 11.25 4.20924 11.25 4.375C11.25 4.54076 11.1842 4.69973 11.0669 4.81694C10.9497 4.93415 10.7908 5 10.625 5H10V10H10.625C10.7908 10 10.9497 10.0658 11.0669 10.1831C11.1842 10.3003 11.25 10.4592 11.25 10.625C11.25 10.7908 11.1842 10.9497 11.0669 11.0669C10.9497 11.1842 10.7908 11.25 10.625 11.25H8.75C8.58424 11.25 8.42527 11.1842 8.30806 11.0669C8.19085 10.9497 8.125 10.7908 8.125 10.625C8.125 10.4592 8.19085 10.3003 8.30806 10.1831C8.42527 10.0658 8.58424 10 8.75 10V6.55391L6.77969 9.70625C6.72347 9.796 6.64538 9.87 6.55272 9.9213C6.46007 9.97259 6.3559 9.9995 6.25 9.9995C6.1441 9.9995 6.03993 9.97259 5.94728 9.9213C5.85462 9.87 5.77653 9.796 5.72031 9.70625L3.75 6.55391V10C3.91576 10 4.07473 10.0658 4.19194 10.1831C4.30915 10.3003 4.375 10.4592 4.375 10.625ZM13.125 8.75H18.125C18.2908 8.75 18.4497 8.68415 18.5669 8.56694C18.6842 8.44973 18.75 8.29076 18.75 8.125C18.75 7.95924 18.6842 7.80027 18.5669 7.68306C18.4497 7.56585 18.2908 7.5 18.125 7.5H13.125C12.9592 7.5 12.8003 7.56585 12.6831 7.68306C12.5658 7.80027 12.5 7.95924 12.5 8.125C12.5 8.29076 12.5658 8.44973 12.6831 8.56694C12.8003 8.68415 12.9592 8.75 13.125 8.75ZM18.125 10H13.125C12.9592 10 12.8003 10.0658 12.6831 10.1831C12.5658 10.3003 12.5 10.4592 12.5 10.625C12.5 10.7908 12.5658 10.9497 12.6831 11.0669C12.8003 11.1842 12.9592 11.25 13.125 11.25H18.125C18.2908 11.25 18.4497 11.1842 18.5669 11.0669C18.6842 10.9497 18.75 10.7908 18.75 10.625C18.75 10.4592 18.6842 10.3003 18.5669 10.1831C18.4497 10.0658 18.2908 10 18.125 10ZM18.125 12.5H6.25C6.08424 12.5 5.92527 12.5658 5.80806 12.6831C5.69085 12.8003 5.625 12.9592 5.625 13.125C5.625 13.2908 5.69085 13.4497 5.80806 13.5669C5.92527 13.6842 6.08424 13.75 6.25 13.75H18.125C18.2908 13.75 18.4497 13.6842 18.5669 13.5669C18.6842 13.4497 18.75 13.2908 18.75 13.125C18.75 12.9592 18.6842 12.8003 18.5669 12.6831C18.4497 12.5658 18.2908 12.5 18.125 12.5ZM18.125 15H6.25C6.08424 15 5.92527 15.0658 5.80806 15.1831C5.69085 15.3003 5.625 15.4592 5.625 15.625C5.625 15.7908 5.69085 15.9497 5.80806 16.0669C5.92527 16.1842 6.08424 16.25 6.25 16.25H18.125C18.2908 16.25 18.4497 16.1842 18.5669 16.0669C18.6842 15.9497 18.75 15.7908 18.75 15.625C18.75 15.4592 18.6842 15.3003 18.5669 15.1831C18.4497 15.0658 18.2908 15 18.125 15Z" fill="#4D4D4D"/>
</svg>
