<svg width="20" height="20" viewBox="0 0 20 20" fill="none" xmlns="http://www.w3.org/2000/svg">
<path d="M15.0391 13.3961C15.8294 12.7322 16.4608 11.8995 16.8867 10.9593C17.3126 10.019 17.5222 8.99524 17.5 7.96329C17.4219 4.39219 14.5617 1.44766 10.9969 1.26016C10.0771 1.2101 9.15661 1.34538 8.29012 1.65798C7.42364 1.97058 6.62881 2.45412 5.95284 3.07988C5.27687 3.70565 4.73354 4.46087 4.35512 5.3007C3.97671 6.14053 3.77092 7.04784 3.74999 7.96875L1.99608 11.3422C1.98905 11.3563 1.98202 11.3703 1.97577 11.3844C1.85003 11.6775 1.84107 12.0075 1.95072 12.307C2.06037 12.6065 2.28035 12.8527 2.56561 12.9953L2.58515 13.0039L4.37499 13.8234V16.25C4.37499 16.5815 4.50669 16.8995 4.74111 17.1339C4.97553 17.3683 5.29347 17.5 5.62499 17.5H9.37499C9.54075 17.5 9.69972 17.4342 9.81693 17.3169C9.93414 17.1997 9.99999 17.0408 9.99999 16.875C9.99999 16.7092 9.93414 16.5503 9.81693 16.4331C9.69972 16.3159 9.54075 16.25 9.37499 16.25H5.62499V13.4227C5.62508 13.3029 5.59074 13.1856 5.52605 13.0847C5.46137 12.9839 5.36907 12.9038 5.26015 12.8539L3.12499 11.875L4.92733 8.41094C4.97431 8.32291 4.99924 8.22479 4.99999 8.125C4.99981 6.85027 5.43261 5.61327 6.22747 4.61671C7.02234 3.62015 8.13213 2.92312 9.37499 2.63985V3.85782C8.95798 4.00525 8.60652 4.29536 8.38272 4.67687C8.15892 5.05837 8.0772 5.50672 8.15199 5.94265C8.22679 6.37859 8.45328 6.77404 8.79145 7.05913C9.12962 7.34422 9.55769 7.50058 9.99999 7.50058C10.4423 7.50058 10.8704 7.34422 11.2085 7.05913C11.5467 6.77404 11.7732 6.37859 11.848 5.94265C11.9228 5.50672 11.8411 5.05837 11.6173 4.67687C11.3935 4.29536 11.042 4.00525 10.625 3.85782V2.50001C10.7266 2.50001 10.8281 2.50001 10.9297 2.50782C12.038 2.5713 13.103 2.96017 13.9915 3.62578C14.88 4.29138 15.5526 5.20418 15.925 6.25H14.375C14.2833 6.24997 14.1927 6.27011 14.1097 6.30899C14.0267 6.34788 13.9532 6.40455 13.8945 6.475L11.9016 8.86719C11.4859 8.71231 11.0289 8.70942 10.6113 8.85901C10.1937 9.00861 9.84249 9.30106 9.61974 9.68465C9.39699 10.0682 9.31707 10.5182 9.39411 10.9551C9.47116 11.3919 9.7002 11.7874 10.0407 12.0716C10.3813 12.3559 10.8113 12.5105 11.2549 12.5082C11.6985 12.506 12.1269 12.3469 12.4645 12.0592C12.8021 11.7714 13.0271 11.3736 13.0996 10.936C13.1722 10.4984 13.0876 10.0492 12.8609 9.66797L14.668 7.5H16.2141C16.2328 7.6625 16.2443 7.82657 16.2484 7.99219C16.2679 8.88738 16.0742 9.77436 15.6832 10.5799C15.2923 11.3854 14.7153 12.0864 14 12.625C13.9118 12.6911 13.8427 12.7793 13.7997 12.8807C13.7566 12.9821 13.7411 13.093 13.7547 13.2023L14.3797 18.2023C14.3987 18.3533 14.4721 18.4921 14.5862 18.5928C14.7002 18.6935 14.8471 18.7491 14.9992 18.7492C15.0253 18.7492 15.0514 18.7477 15.0773 18.7445C15.1588 18.7344 15.2375 18.7083 15.3089 18.6677C15.3802 18.6272 15.4429 18.573 15.4933 18.5082C15.5438 18.4434 15.5809 18.3693 15.6027 18.2902C15.6245 18.211 15.6305 18.1283 15.6203 18.0469L15.0391 13.3961ZM9.99999 6.25C9.87638 6.25 9.75554 6.21335 9.65276 6.14467C9.54998 6.076 9.46987 5.97839 9.42256 5.86418C9.37526 5.74998 9.36288 5.62431 9.387 5.50307C9.41111 5.38184 9.47064 5.27047 9.55805 5.18306C9.64546 5.09566 9.75682 5.03613 9.87806 5.01201C9.9993 4.9879 10.125 5.00028 10.2392 5.04758C10.3534 5.09489 10.451 5.17499 10.5197 5.27777C10.5883 5.38055 10.625 5.50139 10.625 5.62501C10.625 5.79077 10.5591 5.94974 10.4419 6.06695C10.3247 6.18416 10.1658 6.25 9.99999 6.25ZM11.25 11.25C11.1264 11.25 11.0055 11.2133 10.9028 11.1447C10.8 11.076 10.7199 10.9784 10.6726 10.8642C10.6253 10.75 10.6129 10.6243 10.637 10.5031C10.6611 10.3818 10.7206 10.2705 10.808 10.1831C10.8955 10.0957 11.0068 10.0361 11.1281 10.012C11.2493 9.9879 11.375 10.0003 11.4892 10.0476C11.6034 10.0949 11.701 10.175 11.7697 10.2778C11.8383 10.3806 11.875 10.5014 11.875 10.625C11.875 10.7908 11.8091 10.9497 11.6919 11.0669C11.5747 11.1842 11.4158 11.25 11.25 11.25Z" fill="#4D4D4D"/>
</svg>
